<svg xmlns="http://www.w3.org/2000/svg" viewBox="0 0 512 512">
  <defs>
    <linearGradient id="g" x1="0" y1="0" x2="1" y2="1">
      <stop offset="0" stop-color="#111"/>
      <stop offset="1" stop-color="#333"/>
    </linearGradient>
  </defs>
  <rect width="512" height="512" rx="110" fill="url(#g)"/>
  <!-- brake disc -->
  <circle cx="160" cy="320" r="90" fill="none" stroke="#fff" stroke-width="18" opacity="0.95"/>
  <circle cx="160" cy="320" r="35" fill="none" stroke="#fff" stroke-width="14" opacity="0.95"/>
  <path d="M160 230 L160 250 M160 390 L160 410 M70 320 L90 320 M230 320 L250 320"
        stroke="#fff" stroke-width="14" stroke-linecap="round" opacity="0.95"/>
  <!-- simple 737 silhouette -->
  <path d="M120 170
           C170 155, 240 150, 310 155
           C350 158, 390 165, 420 180
           L450 190
           C455 192, 455 200, 450 202
           L420 212
           C390 227, 350 234, 310 237
           C240 242, 170 237, 120 222
           L85 212
           C75 209, 75 183, 85 180
           Z"
        fill="#fff" opacity="0.95"/>
  <text x="256" y="455" text-anchor="middle"
        font-family="system-ui, -apple-system, Segoe UI, Roboto, Arial"
        font-size="30" fill="#fff" opacity="0.95">Brakecooling_737</text>
</svg>